<?xml version="1.0" encoding="UTF-8" standalone="no"?>
<!-- Generator: Adobe Illustrator 16.0.0, SVG Export Plug-In . SVG Version: 6.00 Build 0)  -->

<svg
   xmlns:dc="http://purl.org/dc/elements/1.1/"
   xmlns:cc="http://creativecommons.org/ns#"
   xmlns:rdf="http://www.w3.org/1999/02/22-rdf-syntax-ns#"
   xmlns:svg="http://www.w3.org/2000/svg"
   xmlns="http://www.w3.org/2000/svg"
   xmlns:sodipodi="http://sodipodi.sourceforge.net/DTD/sodipodi-0.dtd"
   xmlns:inkscape="http://www.inkscape.org/namespaces/inkscape"
   version="1.1"
   id="Layer_1"
   x="0px"
   y="0px"
   width="100px"
   height="100px"
   viewBox="0 0 100 100"
   enable-background="new 0 0 100 100"
   xml:space="preserve"
   sodipodi:docname="clear-night.svg"
   inkscape:version="0.92.2 (5c3e80d, 2017-08-06)"><metadata
     id="metadata4669"><rdf:RDF><cc:Work
         rdf:about=""><dc:format>image/svg+xml</dc:format><dc:type
           rdf:resource="http://purl.org/dc/dcmitype/StillImage" /><dc:title /></cc:Work></rdf:RDF></metadata><defs
     id="defs4667" /><sodipodi:namedview
     pagecolor="#ffffff"
     bordercolor="#666666"
     borderopacity="1"
     objecttolerance="10"
     gridtolerance="10"
     guidetolerance="10"
     inkscape:pageopacity="0"
     inkscape:pageshadow="2"
     inkscape:window-width="1366"
     inkscape:window-height="705"
     id="namedview4665"
     showgrid="false"
     inkscape:zoom="2.36"
     inkscape:cx="187.71186"
     inkscape:cy="2.3305085"
     inkscape:window-x="-8"
     inkscape:window-y="-8"
     inkscape:window-maximized="1"
     inkscape:current-layer="Layer_1" /><g
     id="g4662"
     transform="matrix(3.1719869,0,0,3.1719869,-108.01183,-114.22567)"><path
       d="M 50.264754,66.200492 C 28.01375,64.585671 33.994147,36.54487 48.223153,38.084508 39.411223,51.34686 55.561943,60.92142 62.983154,53.06077 64.138523,63.98726 52.949179,66.219729 50.264754,66.200492 Z M 45.539,39.613 c -5.047,1.775 -8.565,6.557 -8.565,12.15 0,7.108 5.782,12.89 12.89,12.89 5.953,0 10.922,-3.955 12.416,-9.439 -1.914,1.289 -4.183,1.994 -6.55,1.994 -6.478,0 -11.748,-5.269 -11.748,-11.748 0,-2.092 0.54,-4.09 1.557,-5.847 z"
       id="path4660"
       inkscape:connector-curvature="0"
       sodipodi:nodetypes="cccccsscssc" /></g></svg>